<svg width="53" height="53" viewBox="0 0 53 53" fill="none" xmlns="http://www.w3.org/2000/svg">
<circle cx="26.5" cy="26.5" r="26" stroke="white" stroke-opacity="0.3"/>
<path d="M31 18H21C18 18 16 19.5 16 23V30C16 33.5 18 35 21 35H31C34 35 36 33.5 36 30V23C36 19.5 34 18 31 18ZM31.47 24.09L28.34 26.59C27.68 27.12 26.84 27.38 26 27.38C25.16 27.38 24.31 27.12 23.66 26.59L20.53 24.09C20.21 23.83 20.16 23.35 20.41 23.03C20.67 22.71 21.14 22.65 21.46 22.91L24.59 25.41C25.35 26.02 26.64 26.02 27.4 25.41L30.53 22.91C30.85 22.65 31.33 22.7 31.58 23.03C31.84 23.35 31.79 23.83 31.47 24.09Z" fill="white"/>
<circle cx="34.5" cy="18.5" r="3.5" fill="#76EF83" stroke="#0A0A0A" stroke-width="2"/>
</svg>
